<svg id="a9a94bb5-418a-4ba0-8f4f-bd4057cd7e1f" data-name="Layer 1" xmlns="http://www.w3.org/2000/svg" viewBox="0 0 14.98 8.14"><defs><style>.a27b92fd-400e-401c-8679-a94f07d73437{fill:#231f20;}</style></defs><path class="a27b92fd-400e-401c-8679-a94f07d73437" d="M4.51,3.71c-.22-.84-.58-1.52-1.67-1.52a1.26,1.26,0,0,0-1.3,1.38c0,.92.51,1.29,1.45,1.84S5,6.55,5,7.85a2.3,2.3,0,0,1-2.46,2.23,4.77,4.77,0,0,1-1.7-.35C.72,9.41.54,8.35.52,8.12l.16,0a2.12,2.12,0,0,0,2,1.74A1.45,1.45,0,0,0,4.11,8.22c0-.92-.62-1.43-1.46-1.94S.77,5.15.77,3.94a2.08,2.08,0,0,1,2.28-2,6.2,6.2,0,0,1,1.45.19c0,.42.11,1,.19,1.55Z" transform="translate(-0.52 -1.94)"/><path class="a27b92fd-400e-401c-8679-a94f07d73437" d="M12.54,9.9V9.76c.94-.17,1-.28,1-1.46l0-5.33c-1,2.18-3,6.4-3.19,6.93h-.12c-.14-.37-1.46-3.54-2.85-6.8-.15,4.57-.14,5.17-.14,5.66,0,.67.17.88,1.08,1V9.9H5.74V9.76c.82-.11,1-.33,1-1,0-.5.08-1.19.31-5.6,0-.5,0-.8-1.1-.92V2.1H7.85l2.78,6.29,3-6.29H15.5v.15c-1.05.15-1.13.27-1.13,1.38l0,4.67c0,1.22.11,1.3,1.1,1.46V9.9Z" transform="translate(-0.52 -1.94)"/></svg>