<svg id="a92a4e8e-263c-4794-ae42-0b9258f08829" data-name="Layer 1" xmlns="http://www.w3.org/2000/svg" viewBox="0 0 57.07 8.84"><defs><style>.a5b817b0-11f9-4526-9958-f8c3d087a2c5{fill:#231f20;}</style></defs><path class="a5b817b0-11f9-4526-9958-f8c3d087a2c5" d="M4.51,3.71c-.22-.84-.58-1.52-1.67-1.52a1.26,1.26,0,0,0-1.3,1.38c0,.92.51,1.29,1.45,1.84S5,6.55,5,7.85a2.3,2.3,0,0,1-2.46,2.23,4.77,4.77,0,0,1-1.7-.35C.72,9.41.54,8.35.52,8.12l.16,0a2.12,2.12,0,0,0,2,1.74A1.45,1.45,0,0,0,4.11,8.22c0-.92-.62-1.43-1.46-1.94S.77,5.15.77,3.94a2.08,2.08,0,0,1,2.28-2,6.2,6.2,0,0,1,1.45.19c0,.42.11,1,.19,1.55Z" transform="translate(-0.52 -1.24)"/><path class="a5b817b0-11f9-4526-9958-f8c3d087a2c5" d="M10.2,8.86A2.8,2.8,0,0,1,8.3,10,2.26,2.26,0,0,1,6.07,7.69a2.76,2.76,0,0,1,1.17-2.3,3.09,3.09,0,0,1,1.64-.65,1.59,1.59,0,0,1,1,.31.33.33,0,0,1,.13.27c0,.2-.22.47-.34.47s-.09,0-.21-.14a1.76,1.76,0,0,0-1.16-.42c-.83,0-1.5.5-1.51,1.89A2,2,0,0,0,8.65,9.38a1.83,1.83,0,0,0,1.44-.64Z" transform="translate(-0.52 -1.24)"/><path class="a5b817b0-11f9-4526-9958-f8c3d087a2c5" d="M13.68,9.9V9.76c.68-.11.79-.2.79-1.06V6.79c0-1-.28-1.52-1.1-1.52a1.88,1.88,0,0,0-1.28.59V8.7c0,.82.08,1,.77,1.06V9.9H10.6V9.76c.64-.09.73-.18.73-1v-6c0-.88-.16-.88-.77-1V1.65a5.53,5.53,0,0,0,1.57-.41c0,.24,0,1,0,1.5V5.61a2.48,2.48,0,0,1,1.72-.87c.81,0,1.44.54,1.44,1.91V8.82c0,.76.06.8.68.94V9.9Z" transform="translate(-0.52 -1.24)"/><path class="a5b817b0-11f9-4526-9958-f8c3d087a2c5" d="M19.09,4.74A2.44,2.44,0,0,1,21.51,7.3,2.55,2.55,0,0,1,19.08,10a2.49,2.49,0,0,1-2.46-2.55A2.62,2.62,0,0,1,19.09,4.74ZM19,5c-.84,0-1.42.9-1.42,2.13,0,1.6.72,2.65,1.7,2.65.76,0,1.37-.57,1.37-2.26C20.6,6.22,20,5,19,5Z" transform="translate(-0.52 -1.24)"/><path class="a5b817b0-11f9-4526-9958-f8c3d087a2c5" d="M22.08,9.9V9.76c.7-.11.79-.17.79-1.06V2.93c0-1-.06-1-.77-1.14V1.65a5.5,5.5,0,0,0,1.57-.41c0,.31,0,.86,0,1.67V8.7c0,.86.05.94.77,1.06V9.9Z" transform="translate(-0.52 -1.24)"/><path class="a5b817b0-11f9-4526-9958-f8c3d087a2c5" d="M28.58,10A.79.79,0,0,1,28,9.8a.91.91,0,0,1-.26-.54,4,4,0,0,1-1.33.78,1.32,1.32,0,0,1-1.32-1.32A1.06,1.06,0,0,1,26,7.67,10.83,10.83,0,0,0,27.79,7V6.6c0-.86-.42-1.43-1.07-1.43a.73.73,0,0,0-.53.22,2.37,2.37,0,0,0-.32.76.25.25,0,0,1-.23.19.46.46,0,0,1-.42-.42c0-.1.09-.19.29-.35a5.74,5.74,0,0,1,1.64-.83A1.47,1.47,0,0,1,28,5a1.74,1.74,0,0,1,.51,1.46V8.64c0,.58.2.77.42.77a.6.6,0,0,0,.38-.12l.07.15Zm-.79-2.86c-.2.13-.83.37-1.15.53s-.68.4-.68.83a.86.86,0,0,0,.87.9,1.34,1.34,0,0,0,.94-.4C27.77,8.46,27.79,7.8,27.79,7.18Z" transform="translate(-0.52 -1.24)"/><path class="a5b817b0-11f9-4526-9958-f8c3d087a2c5" d="M32.35,9.9H29.9V9.76c.7-.11.75-.17.75-1V6.3c0-.77,0-.84-.61-1V5.2a5.11,5.11,0,0,0,1.42-.51c0,.22,0,.86,0,1.3.28-.5.9-1.25,1.45-1.25a.54.54,0,0,1,.58.47.72.72,0,0,1-.29.55c-.13.09-.22.06-.28,0a.75.75,0,0,0-.54-.3c-.24,0-.61.27-.92.87V8.71c0,.85.06.91.92,1Z" transform="translate(-0.52 -1.24)"/><path class="a5b817b0-11f9-4526-9958-f8c3d087a2c5" d="M40.19,9.9V9.76c1-.17,1-.28,1-1.46l0-5.33c-1,2.18-3,6.4-3.19,6.93H37.9c-.13-.37-1.45-3.54-2.84-6.8-.15,4.57-.14,5.17-.14,5.66,0,.67.17.88,1.08,1V9.9H33.39V9.76c.83-.11,1-.33,1-1,.05-.5.08-1.19.31-5.6,0-.5,0-.8-1.1-.92V2.1h1.86l2.78,6.29,3-6.29h1.84v.15c-1,.15-1.13.27-1.13,1.38l0,4.67c0,1.22.12,1.3,1.11,1.46V9.9Z" transform="translate(-0.52 -1.24)"/><path class="a5b817b0-11f9-4526-9958-f8c3d087a2c5" d="M47.64,8.89A2.65,2.65,0,0,1,45.85,10a2.29,2.29,0,0,1-2.23-2.49,2.87,2.87,0,0,1,.72-2A2.44,2.44,0,0,1,46,4.74a1.65,1.65,0,0,1,1.66,1.6c0,.18,0,.29-.06.3a25,25,0,0,1-3.24.18c0,1.92,1,2.56,1.87,2.56a1.83,1.83,0,0,0,1.31-.61Zm-2-3.82c-.59,0-1.12.44-1.27,1.44a22.19,22.19,0,0,0,2.31,0c.06,0,.09-.07.09-.19A1.12,1.12,0,0,0,45.67,5.07Z" transform="translate(-0.52 -1.24)"/><path class="a5b817b0-11f9-4526-9958-f8c3d087a2c5" d="M51.33,6.12C51.12,5.28,50.66,5,50.11,5a.74.74,0,0,0-.79.82c0,.59.42.84,1,1.14.84.42,1.33.8,1.33,1.53A1.65,1.65,0,0,1,49.89,10a3.43,3.43,0,0,1-1.16-.22c-.06-.2-.2-1-.24-1.26l.14,0A1.52,1.52,0,0,0,50.07,9.8.82.82,0,0,0,51,8.93c0-.58-.35-.88-.93-1.2S48.71,7,48.69,6.17a1.51,1.51,0,0,1,1.65-1.43,7.49,7.49,0,0,1,1,.12c0,.23.12,1,.15,1.21Z" transform="translate(-0.52 -1.24)"/><path class="a5b817b0-11f9-4526-9958-f8c3d087a2c5" d="M55.33,9.9V9.76c.68-.11.79-.2.79-1.06V6.79c0-1-.28-1.52-1.1-1.52a1.84,1.84,0,0,0-1.27.59V8.7c0,.82.07,1,.76,1.06V9.9H52.25V9.76c.64-.09.73-.18.73-1v-6c0-.88-.16-.88-.77-1V1.65a5.53,5.53,0,0,0,1.57-.41c0,.24,0,1,0,1.5V5.61a2.43,2.43,0,0,1,1.71-.87c.82,0,1.44.54,1.44,1.91V8.82c0,.76.06.8.68.94V9.9Z" transform="translate(-0.52 -1.24)"/></svg>